<svg width="60" height="60" viewBox="0 0 60 60" fill="none" xmlns="http://www.w3.org/2000/svg">
<g clip-path="url(#clip0_24_7259)">
<path d="M43.75 59.5C35.0661 59.5 28 52.4339 28 43.75C28 35.0661 35.0661 28 43.75 28C52.4339 28 59.5 35.0661 59.5 43.75C59.5 52.4339 52.4339 59.5 43.75 59.5ZM43.75 30.75C36.5814 30.75 30.75 36.5814 30.75 43.75C30.75 50.9186 36.5814 56.75 43.75 56.75C50.9186 56.75 56.75 50.9186 56.75 43.75C56.75 36.5814 50.9186 30.75 43.75 30.75Z" fill="black" stroke="black"/>
<path d="M43.75 52C43.3853 52 43.0356 51.8551 42.7777 51.5973C42.5199 51.3394 42.375 50.9897 42.375 50.625V36.875C42.375 36.5103 42.5199 36.1606 42.7777 35.9027C43.0356 35.6449 43.3853 35.5 43.75 35.5C44.1147 35.5 44.4644 35.6449 44.7223 35.9027C44.9801 36.1606 45.125 36.5103 45.125 36.875V50.625C45.125 50.9897 44.9801 51.3394 44.7223 51.5973C44.4644 51.8551 44.1147 52 43.75 52Z" fill="black" stroke="black"/>
<path d="M50.625 45.125H36.875C36.5103 45.125 36.1606 44.9801 35.9027 44.7223C35.6449 44.4644 35.5 44.1147 35.5 43.75C35.5 43.3853 35.6449 43.0356 35.9027 42.7777C36.1606 42.5199 36.5103 42.375 36.875 42.375H50.625C50.9897 42.375 51.3394 42.5199 51.5973 42.7777C51.8551 43.0356 52 43.3853 52 43.75C52 44.1147 51.8551 44.4644 51.5973 44.7223C51.3394 44.9801 50.9897 45.125 50.625 45.125ZM22.975 52H6.87536C5.18489 51.9988 3.564 51.3267 2.36866 50.1313C1.17335 48.936 0.501271 47.3152 0.5 45.6248V6.8752C0.501271 5.18479 1.17335 3.56397 2.36866 2.36866C3.56397 1.17335 5.18479 0.501271 6.8752 0.5H35.6248C37.3152 0.501271 38.936 1.17335 40.1313 2.36866C41.3267 3.564 41.9988 5.18489 42 6.87536V22.1C42 22.4647 41.8551 22.8144 41.5973 23.0723C41.3394 23.3301 40.9897 23.475 40.625 23.475C40.2603 23.475 39.9106 23.3301 39.6527 23.0723C39.3949 22.8144 39.25 22.4647 39.25 22.1V6.875C39.25 4.87636 37.6236 3.25 35.625 3.25H6.875C4.87636 3.25 3.25 4.87636 3.25 6.875V45.625C3.25 47.6236 4.87636 49.25 6.875 49.25H22.975C23.3397 49.25 23.6894 49.3949 23.9473 49.6527C24.2051 49.9106 24.35 50.2603 24.35 50.625C24.35 50.9897 24.2051 51.3394 23.9473 51.5973C23.6894 51.8551 23.3397 52 22.975 52Z" fill="black" stroke="black"/>
<path d="M33.125 23.25H9.375C9.01033 23.25 8.66059 23.1051 8.40273 22.8473C8.14487 22.5894 8 22.2397 8 21.875C8 21.5103 8.14487 21.1606 8.40273 20.9027C8.66059 20.6449 9.01033 20.5 9.375 20.5H33.125C33.4897 20.5 33.8394 20.6449 34.0973 20.9027C34.3551 21.1606 34.5 21.5103 34.5 21.875C34.5 22.2397 34.3551 22.5894 34.0973 22.8473C33.8394 23.1051 33.4897 23.25 33.125 23.25ZM23.125 33.25H9.375C9.01033 33.25 8.66059 33.1051 8.40273 32.8473C8.14487 32.5894 8 32.2397 8 31.875C8 31.5103 8.14487 31.1606 8.40273 30.9027C8.66059 30.6449 9.01033 30.5 9.375 30.5H23.125C23.4897 30.5 23.8394 30.6449 24.0973 30.9027C24.3551 31.1606 24.5 31.5103 24.5 31.875C24.5 32.2397 24.3551 32.5894 24.0973 32.8473C23.8394 33.1051 23.4897 33.25 23.125 33.25ZM20.625 13.25H9.375C9.01033 13.25 8.66059 13.1051 8.40273 12.8473C8.14487 12.5894 8 12.2397 8 11.875C8 11.5103 8.14487 11.1606 8.40273 10.9027C8.66059 10.6449 9.01033 10.5 9.375 10.5H20.625C20.9897 10.5 21.3394 10.6449 21.5973 10.9027C21.8551 11.1606 22 11.5103 22 11.875C22 12.2397 21.8551 12.5894 21.5973 12.8473C21.3394 13.1051 20.9897 13.25 20.625 13.25Z" fill="black" stroke="black"/>
</g>
<defs>
<clipPath id="clip0_24_7259">
<rect width="60" height="60" fill="white"/>
</clipPath>
</defs>
</svg>
